<?xml version="1.0" encoding="UTF-8"?>
<svg version="1.1" xmlns="http://www.w3.org/2000/svg" width="1260" height="469">
<path d="M0 0 C415.8 0 831.6 0 1260 0 C1260 154.77 1260 309.54 1260 469 C844.2 469 428.4 469 0 469 C0 314.23 0 159.46 0 0 Z " fill="#FDFEFE" transform="translate(0,0)"/>
<path d="M0 0 C11.55 0 23.1 0 35 0 C35 46.2 35 92.4 35 140 C23.45 140 11.9 140 0 140 C-0.33 113.6 -0.66 87.2 -1 60 C-7.59231739 70.62546355 -7.59231739 70.62546355 -10 77 C-10.66 77.66 -11.32 78.32 -12 79 C-12.6425235 81.06874034 -12.6425235 81.06874034 -13 83 C-13.66 83 -14.32 83 -15 83 C-15.25136719 83.67417969 -15.50273438 84.34835938 -15.76171875 85.04296875 C-17.24291974 88.58009541 -18.99904726 91.93842761 -20.8125 95.3125 C-21.34544678 96.31108032 -21.34544678 96.31108032 -21.88916016 97.32983398 C-24.10892967 101.4534866 -26.48286813 105.4203981 -29.03515625 109.34765625 C-30.45009666 111.77081331 -31.25910435 114.305834 -32 117 C-32.66 117 -33.32 117 -34 117 C-34.33 118.65 -34.66 120.3 -35 122 C-35.66 122 -36.32 122 -37 122 C-37.495 123.98 -37.495 123.98 -38 126 C-44.6 126 -51.2 126 -58 126 C-58.680625 124.5975 -59.36125 123.195 -60.0625 121.75 C-62.6728755 116.49924468 -65.61249834 111.48550382 -68.64453125 106.46875 C-70 104 -70 104 -70 102 C-70.66 102 -71.32 102 -72 102 C-72.45890625 101.04738281 -72.9178125 100.09476562 -73.390625 99.11328125 C-74.01008974 97.84619428 -74.62989981 96.5792761 -75.25 95.3125 C-75.55035156 94.68666016 -75.85070312 94.06082031 -76.16015625 93.41601562 C-78.07401802 89.52721139 -80.23471858 86.36377921 -83 83 C-84.02209675 81.27472159 -85.00150437 79.5234654 -85.9375 77.75 C-88.56843212 72.79593284 -91.27312709 67.90837125 -94 63 C-94.33 88.41 -94.66 113.82 -95 140 C-106.22 140 -117.44 140 -129 140 C-129 94.13 -129 48.26 -129 1 C-117.78 1 -106.56 1 -95 1 C-88.25349132 11.11976301 -88.25349132 11.11976301 -85.88671875 15.1640625 C-85.36529297 16.05134033 -84.84386719 16.93861816 -84.30664062 17.8527832 C-83.77232422 18.76761475 -83.23800781 19.68244629 -82.6875 20.625 C-81.54601721 22.56927133 -80.40408839 24.51328086 -79.26171875 26.45703125 C-78.70790527 27.4001416 -78.1540918 28.34325195 -77.58349609 29.31494141 C-74.75948259 34.10348605 -71.88083566 38.85877709 -69 43.61328125 C-67.52804763 46.10582559 -66.10115165 48.60343949 -64.703125 51.13671875 C-61.4772154 56.97781348 -58.11289968 62.73702254 -54.75 68.5 C-54.11320313 69.59570312 -53.47640625 70.69140625 -52.8203125 71.8203125 C-52.21445312 72.85929687 -51.60859375 73.89828125 -50.984375 74.96875 C-50.43491211 75.91169922 -49.88544922 76.85464844 -49.31933594 77.82617188 C-48.17738858 79.90181559 -48.17738858 79.90181559 -47 81 C-46.60167969 80.14535156 -46.20335937 79.29070312 -45.79296875 78.41015625 C-45.26316406 77.30542969 -44.73335937 76.20070313 -44.1875 75.0625 C-43.66542969 73.96035156 -43.14335938 72.85820312 -42.60546875 71.72265625 C-41 69 -41 69 -38 68 C-37.90251465 67.29875 -37.8050293 66.5975 -37.70458984 65.875 C-36.87471486 62.48878802 -35.48850788 60.00785554 -33.7265625 57 C-33.0665625 55.865625 -32.4065625 54.73125 -31.7265625 53.5625 C-31.02617785 52.37491968 -30.3256558 51.18742037 -29.625 50 C-28.93164713 48.81287621 -28.2389325 47.62537941 -27.546875 46.4375 C-25.70642122 43.28652855 -23.85866289 40.14026029 -22 37 C-21.47325684 36.05125 -20.94651367 35.1025 -20.40380859 34.125 C-19.94055176 33.42375 -19.47729492 32.7225 -19 32 C-18.34 32 -17.68 32 -17 32 C-16.83564453 30.90558594 -16.83564453 30.90558594 -16.66796875 29.7890625 C-15.95984895 26.83235175 -14.9399068 24.92930254 -13.3125 22.375 C-10.51811941 17.88522783 -7.96809472 13.31267591 -5.4921875 8.640625 C-3.81318665 5.66940884 -1.89307802 2.83961704 0 0 Z " fill="#333C48" transform="translate(890,149)"/>
<path d="M0 0 C5.88541975 0.1252217 9.13398017 2.12948691 13.7890625 5.625 C19.31534929 11.5613646 21.81819289 18.71803916 23.8125 26.4375 C24.31365152 28.28330223 24.81770016 30.12831962 25.32421875 31.97265625 C25.59024902 32.94477051 25.8562793 33.91688477 26.13037109 34.91845703 C27.68767271 40.43677847 29.41520975 45.9024044 31.125 51.375 C33.70399901 59.65102778 36.14255555 67.92133591 38.2109375 76.33984375 C38.91436604 79.1913308 38.91436604 79.1913308 41 82 C41.61779175 84.04661815 42.16955179 86.11336352 42.6875 88.1875 C43.94744236 93.16793346 45.31458763 98.09815159 46.81640625 103.01171875 C47.13456299 104.06141846 47.45271973 105.11111816 47.78051758 106.19262695 C48.41524621 108.27615446 49.05927084 110.3568781 49.71362305 112.43432617 C53.21730612 124.0282799 53.21730612 124.0282799 52 130 C50.171875 132.3828125 50.171875 132.3828125 47.75 134.125 C42.79126961 138.09979333 39.57200921 140.98991435 38.62890625 147.6015625 C38.34333102 153.88421756 39.21460768 158.89492962 43 164 C46.85695215 168.03821883 50.18491388 169.85122245 55.8125 170.3125 C60.1549424 170.27244057 62.64299299 168.78385947 66 166 C68.54629218 160.90741565 66.89833873 154.08390361 66 148.6875 C62.93749962 127.72288343 64.96957671 106.51589592 78 89 C89.61959637 74.53066085 104.43953162 63.87504265 122 57.8125 C122.92039063 57.48314453 123.84078125 57.15378906 124.7890625 56.81445312 C149.37184106 48.10660973 173.14995643 46.32997594 199 47 C200 50 200 50 198.6875 52.6875 C198.130625 53.450625 197.57375 54.21375 197 55 C196.34 55 195.68 55 195 55 C194.84144531 55.54527344 194.68289063 56.09054688 194.51953125 56.65234375 C193.22915386 60.8229005 191.79402051 64.5519747 189.5625 68.3125 C184.14494343 77.68508699 182.20042758 88.12774189 180.4375 98.6875 C179.26245214 105.65634817 178.08159698 112.38619802 175.68920898 119.04956055 C174.70267265 121.84142691 174.00681579 124.68604889 173.3125 127.5625 C173.06113281 128.59503906 172.80976563 129.62757813 172.55078125 130.69140625 C172.36902344 131.45324219 172.18726563 132.21507812 172 133 C171.34 133 170.68 133 170 133 C169.8453125 134.30710938 169.8453125 134.30710938 169.6875 135.640625 C167.27823603 147.41316485 157.41723908 158.02690628 147.9375 164.875 C141.72459216 168.95941163 135.57025155 171.99267212 128.46875 174.19140625 C125.79086114 175.01931967 125.79086114 175.01931967 122.52734375 176.5703125 C116.83918014 178.71480185 111.06342446 178.39788595 105.0625 178.3125 C103.93392578 178.31572266 102.80535156 178.31894531 101.64257812 178.32226562 C95.12312243 178.28054718 89.30199519 177.67741335 83 176 C84.875 167.375 84.875 167.375 86 164 C86.66 164 87.32 164 88 164 C88.09796875 163.15695312 88.1959375 162.31390625 88.296875 161.4453125 C89.08386513 157.58906086 90.48075975 154.35475603 92.25 150.875 C92.59281006 150.1955835 92.93562012 149.51616699 93.28881836 148.81616211 C99.90411598 136.09333566 108.0855455 124.20599612 117 113 C117.721875 112.06929688 118.44375 111.13859375 119.1875 110.1796875 C123.1770747 105.10673691 127.33667809 100.45657364 132 96 C132.845625 95.154375 133.69125 94.30875 134.5625 93.4375 C135.7690625 92.2309375 135.7690625 92.2309375 137 91 C137.51820313 90.45859375 138.03640625 89.9171875 138.5703125 89.359375 C140.01064719 87.87033334 141.50220318 86.43122807 143 85 C143.66 85 144.32 85 145 85 C145 84.34 145 83.68 145 83 C146.5 81.375 146.5 81.375 148 80 C127.33674901 90.55144731 107.53352721 107.02992767 94 126 C93.60490234 126.52980469 93.20980469 127.05960937 92.80273438 127.60546875 C85.10111009 137.94276001 79.4950347 148.73952343 74.16992188 160.45214844 C72.36786798 164.37665479 70.4789535 168.25533295 68.5625 172.125 C68.24450439 172.78177734 67.92650879 173.43855469 67.59887695 174.11523438 C64.51299819 180.33846473 64.51299819 180.33846473 62 182 C52.6590447 183.43607484 45.06139449 181.63100039 37.484375 176.1953125 C34.84144343 173.85989184 33.13309098 171.59961717 31.25 168.625 C30.65703125 167.70976562 30.0640625 166.79453125 29.453125 165.8515625 C25.66537755 158.41861723 26.06937392 148.68229827 28.125 140.75 C30.2638747 134.37392329 34.3891976 129.66860157 40 126 C39.48552111 120.44362804 38.36097395 115.50210719 36.62109375 110.19921875 C36 108 36 108 36 105 C35.34 105 34.68 105 34 105 C32.24530526 100.07014334 30.78814087 95.24166975 29.6875 90.125 C28.28250348 83.81715104 26.39913492 77.73986748 24.40966797 71.59912109 C22.11773419 64.48890139 20.06297991 57.32279598 18.0925293 50.1171875 C17.06618878 46.42968496 15.99286083 42.98345758 14.47265625 39.4609375 C12.41214363 34.61845957 11.26325603 29.61230929 10.0703125 24.49609375 C8.47474203 18.2712695 6.05477825 14.9669081 0.54296875 11.41796875 C-0.23433594 11.01191406 -1.01164062 10.60585937 -1.8125 10.1875 C-3.194375 9.465625 -4.57625 8.74375 -6 8 C-4.02 5.36 -2.04 2.72 0 0 Z " fill="#85BA48" transform="translate(83,113)"/>
<path d="M0 0 C0.87889893 -0.00547852 1.75779785 -0.01095703 2.66333008 -0.01660156 C8.47861819 0.04678032 13.67603159 0.87911239 19.3125 2.3125 C19.3125 2.9725 19.3125 3.6325 19.3125 4.3125 C20.59125 4.498125 21.87 4.68375 23.1875 4.875 C29.25544719 6.23505713 33.51785773 9.48281718 38.3125 13.3125 C39.11171875 13.94671875 39.9109375 14.5809375 40.734375 15.234375 C50.79346044 23.67320507 54.72491719 33.03467675 58.3125 45.3125 C58.51488281 45.9621875 58.71726562 46.611875 58.92578125 47.28125 C61.26992176 59.59390723 58.8471276 71.82903461 54.3125 83.3125 C52.83203125 85.48046875 52.83203125 85.48046875 51.3125 87.3125 C50.84972656 88.11816406 50.38695312 88.92382812 49.91015625 89.75390625 C41.05457259 103.93583118 26.68041413 109.57345888 11.37475586 113.85449219 C-4.67864492 117.41980293 -22.15032975 113.29028471 -36.3125 105.5 C-47.40973145 98.05038028 -57.09643009 86.15627389 -60.24951172 72.96044922 C-60.70625541 70.1991103 -60.81693641 67.61813035 -60.8203125 64.8203125 C-60.82160156 63.78519531 -60.82289063 62.75007813 -60.82421875 61.68359375 C-60.82035156 60.61238281 -60.81648437 59.54117188 -60.8125 58.4375 C-60.81636719 57.37402344 -60.82023438 56.31054688 -60.82421875 55.21484375 C-60.8055645 40.19817123 -56.6736211 28.43930243 -46.13671875 17.5625 C-39.067179 11.06799458 -31.85789302 6.21505559 -22.6875 3.3125 C-21.84445312 3.01472656 -21.00140625 2.71695313 -20.1328125 2.41015625 C-13.4326114 0.350746 -6.95587222 0.03160379 0 0 Z " fill="#83B74B" transform="translate(636.6875,176.6875)"/>
<path d="M0 0 C35.64 0 71.28 0 108 0 C108 9.57 108 19.14 108 29 C84.24 29 60.48 29 36 29 C36 37.91 36 46.82 36 56 C56.46 56 76.92 56 98 56 C98 64.91 98 73.82 98 83 C77.21 83 56.42 83 35 83 C35 92.9 35 102.8 35 113 C59.75 113 84.5 113 110 113 C110 121.91 110 130.82 110 140 C73.7 140 37.4 140 0 140 C0 93.8 0 47.6 0 0 Z " fill="#84B849" transform="translate(341,149)"/>
<path d="M0 0 C4.16346275 3.90566319 7.1533701 7.63393187 9.75 12.6875 C10.10269958 13.33355194 10.45539917 13.97960388 10.81878662 14.64523315 C14.78394365 22.96908318 14.25662046 31.51799964 14.140625 40.5078125 C14.13315141 42.21987238 14.12746377 43.9319409 14.12347412 45.64401245 C14.10830562 50.1190614 14.06910132 54.59357924 14.0246582 59.06842041 C13.97626238 64.45413236 13.95812956 69.8400233 13.93484497 75.22589111 C13.89624346 83.3801285 13.81952976 91.53320386 13.75 99.6875 C2.53 99.6875 -8.69 99.6875 -20.25 99.6875 C-20.58 95.7275 -20.91 91.7675 -21.25 87.6875 C-22.301875 88.7703125 -22.301875 88.7703125 -23.375 89.875 C-24.3309285 90.81495198 -25.28937128 91.75235215 -26.25 92.6875 C-27.136875 93.55375 -28.02375 94.42 -28.9375 95.3125 C-32.26720551 98.07711189 -35.94293104 99.03171839 -40.078125 100.109375 C-42.27509951 100.61584495 -42.27509951 100.61584495 -44.25 101.6875 C-58.01185031 102.3788079 -71.82602378 101.84027358 -83.0625 92.875 C-86.37032498 89.85180182 -88.31296022 86.71654273 -90.25 82.6875 C-90.25 82.0275 -90.25 81.3675 -90.25 80.6875 C-90.91 80.6875 -91.57 80.6875 -92.25 80.6875 C-94.85418758 72.87493726 -94.17783899 61.58908659 -91.421875 53.8671875 C-87.02049831 45.68062686 -78.81050988 40.65673979 -70.25 37.6875 C-67.56486061 37.21875799 -64.95475859 36.8452557 -62.25 36.5625 C-61.45489014 36.47758301 -60.65978027 36.39266602 -59.84057617 36.30517578 C-47.35844734 35.14464486 -34.77036188 35.51916335 -22.25 35.6875 C-22.52899359 34.25607589 -22.81889221 32.82677482 -23.11328125 31.3984375 C-23.35365112 30.20420166 -23.35365112 30.20420166 -23.59887695 28.98583984 C-24.68338793 25.15772349 -26.32827752 23.41444098 -29.25 20.6875 C-34.39721774 18.01221769 -38.61688637 17.23003327 -44.4375 17.375 C-45.1807251 17.3848291 -45.9239502 17.3946582 -46.68969727 17.40478516 C-53.00615618 17.55058628 -59.0683645 18.38239008 -65.25 19.6875 C-66.22582031 19.87828125 -67.20164062 20.0690625 -68.20703125 20.265625 C-70.5577909 20.7259136 -72.90480894 21.19978327 -75.25 21.6875 C-75.25 22.3475 -75.25 23.0075 -75.25 23.6875 C-77.23 24.1825 -77.23 24.1825 -79.25 24.6875 C-81.06514724 20.71146318 -82.54771076 16.82983167 -83.75 12.625 C-84.87302975 8.72113468 -86.35749114 5.29227879 -88.25 1.6875 C-88.25 1.0275 -88.25 0.3675 -88.25 -0.3125 C-61.82784028 -14.03097553 -24.63642469 -21.01874118 0 0 Z " fill="#343C48" transform="translate(1038.25,189.3125)"/>
<path d="M0 0 C0 0.66 0 1.32 0 2 C0.99 2.2784375 0.99 2.2784375 2 2.5625 C8.86955221 5.85416043 15.46981034 12.2054927 19 19 C17.15259994 24.54220017 10.77411721 26.9856644 6 30 C5.04996094 30.61230469 4.09992188 31.22460938 3.12109375 31.85546875 C-3.48456057 36 -3.48456057 36 -8 36 C-9.38671875 34.609375 -9.38671875 34.609375 -10.6875 32.75 C-14.15716625 28.48430059 -17.66751605 26.35750735 -23 25 C-30.7919566 24.19848363 -38.38672746 24.26997186 -44.8125 29.125 C-45.534375 29.74375 -46.25625 30.3625 -47 31 C-47.66 31 -48.32 31 -49 31 C-49.66 32.98 -50.32 34.96 -51 37 C-51.66 37 -52.32 37 -53 37 C-54.99285478 47.60713026 -55.61936906 59.5313005 -49.74609375 69.02734375 C-46.32684209 73.43417219 -42.43407963 76.57439269 -37 78 C-29.05052973 78.93212815 -21.72506857 79.09294292 -14.875 74.578125 C-11.84630953 72.02897719 -9.34047731 69.18488481 -7 66 C-3.15032572 66.57820011 -0.44740454 67.69352625 2.86328125 69.72265625 C3.74951172 70.26083984 4.63574219 70.79902344 5.54882812 71.35351562 C6.46083984 71.91748047 7.37285156 72.48144531 8.3125 73.0625 C9.24384766 73.63033203 10.17519531 74.19816406 11.13476562 74.78320312 C13.42730656 76.18224093 15.71543753 77.58798481 18 79 C17.61640416 84.36235011 15.61494002 87.29399002 12 91.0625 C11.50089111 91.58980713 11.00178223 92.11711426 10.48754883 92.66040039 C0.12061772 103.26876903 -15.13019228 107.93124979 -29.7421875 108.125 C-47.15495709 107.88487052 -61.1618705 104.09481134 -73.6171875 91.55078125 C-74.40351563 90.70902344 -75.18984375 89.86726563 -76 89 C-76.73992187 88.29746094 -77.47984375 87.59492188 -78.2421875 86.87109375 C-80.49377633 84.47440252 -81.14419554 82.13794968 -82 79 C-82.66 79 -83.32 79 -84 79 C-84.2475 78.05125 -84.495 77.1025 -84.75 76.125 C-85.35039137 73.92791563 -86.00765885 71.9845946 -87.0234375 69.94140625 C-92.33516643 59.07308145 -91.43482847 43.39394642 -88 32 C-81.67414927 16.62768201 -71.60091034 4.98552459 -56.109375 -1.83203125 C-37.88539976 -9.11444655 -17.67001317 -8.06674514 0 0 Z " fill="#84B74C" transform="translate(552,183)"/>
<path d="M0 0 C11.88 0 23.76 0 36 0 C36 8.91 36 17.82 36 27 C45.24 27 54.48 27 64 27 C64 35.91 64 44.82 64 54 C54.76 54 45.52 54 36 54 C36.0510838 60.58470164 36.11406906 67.16705353 36.20751953 73.75097656 C36.23570362 75.98950591 36.25693086 78.2281343 36.27099609 80.46679688 C36.29246048 83.68931694 36.3391306 86.91064938 36.390625 90.1328125 C36.39185364 91.12991241 36.39308228 92.12701233 36.39434814 93.15432739 C36.51825018 99.06410032 37.09126565 102.48092715 41 107 C44.09398387 109.21270568 46.75460902 109.24409245 50.5 109.1875 C51.4384375 109.18105469 52.376875 109.17460937 53.34375 109.16796875 C55.7323209 109.01692677 57.74832883 108.80343721 60 108 C60.33 107.34 60.66 106.68 61 106 C62.32 106 63.64 106 65 106 C65.39832031 107.62808594 65.39832031 107.62808594 65.8046875 109.2890625 C66.16133082 110.73440647 66.5181088 112.17971722 66.875 113.625 C67.04902344 114.33785156 67.22304687 115.05070312 67.40234375 115.78515625 C68.20120344 119.0101824 69.04485589 122.12961806 70.1328125 125.2734375 C71 128 71 128 71 132 C69.27255984 132.65043719 67.5429631 133.29514844 65.8125 133.9375 C64.84957031 134.29714844 63.88664062 134.65679687 62.89453125 135.02734375 C50.26220055 139.27221601 32.0559433 139.16845608 19.58984375 134.3828125 C10.43804817 129.49633341 5.11079622 121.93226387 0.93774414 112.6328125 C-0.45859128 107.22342143 -0.24430631 101.94587988 -0.1953125 96.3828125 C-0.1924826 95.17051971 -0.18965271 93.95822693 -0.18673706 92.709198 C-0.17556667 88.84769711 -0.15046737 84.98643047 -0.125 81.125 C-0.11496616 78.50260752 -0.10584102 75.8802114 -0.09765625 73.2578125 C-0.07563754 66.83845178 -0.04112886 60.41926558 0 54 C-5.61 54 -11.22 54 -17 54 C-17 45.09 -17 36.18 -17 27 C-11.39 27 -5.78 27 0 27 C0 18.09 0 9.18 0 0 Z " fill="#343C48" transform="translate(1177,153)"/>
<path d="M0 0 C0 10.89 0 21.78 0 33 C-4.95 33.33 -9.9 33.66 -15 34 C-22.22854767 35.43065006 -28.47481364 36.82705556 -33 43 C-34.65907976 46.58479733 -35.91294108 50.20542165 -37 54 C-37.66 54 -38.32 54 -39 54 C-39 73.14 -39 92.28 -39 112 C-50.55 112 -62.1 112 -74 112 C-74 75.7 -74 39.4 -74 2 C-62.45 2 -50.9 2 -39 2 C-38.505 8.435 -38.505 8.435 -38 15 C-36.72125 13.783125 -35.4425 12.56625 -34.125 11.3125 C-23.57420979 1.95426379 -13.98337287 0 0 0 Z " fill="#323A46" transform="translate(1153,177)"/>
<path d="M0 0 C1.0394685 0.00259945 1.0394685 0.00259945 2.09993637 0.00525141 C2.83512367 -0.00069084 3.57031097 -0.00663308 4.32777667 -0.01275539 C6.80427405 -0.03017133 9.28057855 -0.03314935 11.75713241 -0.03613043 C13.52768006 -0.04538411 15.2982237 -0.05543307 17.06876266 -0.06622076 C21.88927401 -0.09250504 26.7097296 -0.1053665 31.53030145 -0.11424208 C34.54187194 -0.12009975 37.55342712 -0.12830879 40.56498992 -0.13725042 C49.98683311 -0.16461435 59.4086414 -0.18393888 68.83052158 -0.19165421 C79.70719797 -0.20060939 90.58337088 -0.23567058 101.45989418 -0.2936554 C109.86509599 -0.33690888 118.2701563 -0.35706392 126.67546821 -0.35973644 C131.69605161 -0.36183181 136.71616219 -0.37362925 141.73662841 -0.40937567 C146.46295807 -0.44237086 151.18846053 -0.44663312 155.91486442 -0.42909765 C157.64664001 -0.42755843 159.37846034 -0.43622282 161.11012352 -0.45601416 C176.93082777 -0.62617664 176.93082777 -0.62617664 182.80908668 4.90104151 C183.2158822 5.35812243 183.62267772 5.81520334 184.04180038 6.2861352 C184.37180038 6.6161352 184.70180038 6.9461352 185.04180038 7.2861352 C185.1955623 9.65761716 185.26389865 12.03483746 185.29180038 14.4111352 C185.33047225 16.36406488 185.33047225 16.36406488 185.36992538 18.3564477 C185.0139386 22.61981313 183.83642167 25.42923516 182.04180038 29.2861352 C181.38167551 31.5413373 180.78082988 33.81444681 180.22930038 36.0986352 C180.06824813 36.75879633 179.90719589 37.41895746 179.74126327 38.09912348 C178.64295766 42.64380132 177.60016976 47.20109636 176.55742538 51.75879145 C176.29679306 52.8966308 176.03616073 54.03447016 175.76763046 55.20678949 C175.25312674 57.4612686 174.74237342 59.71660783 174.23589218 61.97290277 C172.75301731 68.50360881 171.02760678 74.8922206 169.04180038 81.2861352 C168.70277694 82.47722895 168.3637535 83.6683227 168.01445663 84.8955102 C163.80479016 99.42156961 163.80479016 99.42156961 157.04180038 103.2861352 C151.05080825 105.60917296 145.41239308 105.49349626 139.04180038 105.2861352 C139.34962534 103.63942107 139.66319272 101.99377943 139.97930038 100.3486352 C140.15332382 99.43211176 140.32734725 98.51558832 140.50664413 97.57129145 C141.04180038 95.2861352 141.04180038 95.2861352 142.04180038 94.2861352 C144.55343453 93.83152041 147.07132038 93.45088517 149.59648788 93.07910395 C152.69177642 92.07536022 153.3284137 91.01734648 155.04180038 88.2861352 C155.89348257 85.73119581 155.89348257 85.73119581 156.43633163 82.9111352 C156.66642929 81.85386225 156.89652694 80.7965893 157.13359725 79.70727777 C157.37142929 78.57830072 157.60926132 77.44932367 157.85430038 76.2861352 C159.65022155 68.12740935 161.55422838 60.0754003 164.04180038 52.0986352 C166.33327692 44.72258883 168.44451667 37.31689877 170.41680038 29.8486352 C170.8112535 28.38164179 170.8112535 28.38164179 171.21367538 26.88501215 C171.453441 25.96679682 171.69320663 25.04858149 171.94023788 24.10254145 C172.15341659 23.29244623 172.3665953 22.48235102 172.58623397 21.64770746 C173.07809938 19.09796787 173.25779077 16.87557167 173.04180038 14.2861352 C170.17355159 11.4178864 168.19739956 12.03296284 164.17780197 12.02784967 C163.46358815 12.02417397 162.74937434 12.02049827 162.01351768 12.01671118 C159.60824148 12.00669085 157.20319465 12.01088989 154.7979039 12.01489496 C153.07835792 12.01051024 151.35881408 12.00520902 149.63927352 11.99905634 C145.93041897 11.98753572 142.22162171 11.98209542 138.51274955 11.98117495 C132.65185078 11.97923907 126.79107101 11.96121282 120.93021286 11.94041681 C106.37169805 11.89116189 91.81315083 11.8603245 77.25456893 11.83911371 C65.94415351 11.82260953 54.63383965 11.79984641 43.32349235 11.75609297 C37.49366746 11.73426182 31.66403522 11.72626385 25.83417225 11.7284857 C22.21098732 11.72682293 18.58792892 11.71279892 14.96478927 11.69527292 C13.28093464 11.68965745 11.59705395 11.68920278 9.9131974 11.69421053 C7.61943414 11.70031837 5.32647546 11.68818212 3.03278244 11.67140436 C1.74763527 11.66939303 0.46248811 11.66738171 -0.8616029 11.66530943 C-3.95819962 11.2861352 -3.95819962 11.2861352 -5.87560475 9.95346212 C-7.54858822 7.37686541 -7.27586454 5.27218545 -6.95819962 2.2861352 C-4.54371511 -0.12834932 -3.29524351 0.04021173 0 0 Z " fill="#88BB4C" transform="translate(127.95819962024689,136.7138648033142)"/>
<path d="M0 0 C0.78117188 0.48339844 0.78117188 0.48339844 1.578125 0.9765625 C1.578125 1.6365625 1.578125 2.2965625 1.578125 2.9765625 C2.34125 3.2446875 3.104375 3.5128125 3.890625 3.7890625 C6.48296479 4.93451497 7.87888037 5.74071431 9.578125 7.9765625 C9.578125 8.9665625 9.578125 9.9565625 9.578125 10.9765625 C10.238125 10.9765625 10.898125 10.9765625 11.578125 10.9765625 C15.16026948 16.56132319 14.9345306 21.45913503 14.765625 27.8515625 C14.74532227 29.31335938 14.74532227 29.31335938 14.72460938 30.8046875 C14.68944462 33.19589113 14.6402317 35.58593225 14.578125 37.9765625 C13.918125 37.9765625 13.258125 37.9765625 12.578125 37.9765625 C12.330625 39.4925 12.330625 39.4925 12.078125 41.0390625 C10.27606547 47.33988056 4.69689733 50.71344823 -0.671875 53.9140625 C-6.98228636 55.70201239 -14.06518079 56.21249914 -20.296875 53.7890625 C-28.29453176 49.15042158 -32.19540359 43.90962536 -35.0390625 35.0546875 C-36.60595145 26.54871889 -36.1394364 18.32426874 -31.421875 10.9765625 C-24.17295399 0.6996112 -12.67557936 -5.3564545 0 0 Z " fill="#FCFCFA" transform="translate(645.421875,207.0234375)"/>
<path d="M0 0 C6.86955976 5.78962897 10.915796 11.03262053 11.99609375 20.01171875 C12.09511309 21.34397901 12.18431108 22.67721318 12.24609375 24.01171875 C11.83101563 23.65980469 11.4159375 23.30789062 10.98828125 22.9453125 C1.75056802 15.54354646 -9.80713098 9.54964657 -21.56640625 7.88671875 C-23.30857422 7.63535156 -23.30857422 7.63535156 -25.0859375 7.37890625 C-25.96636719 7.25773437 -26.84679687 7.1365625 -27.75390625 7.01171875 C-26.65433594 7.43582031 -25.55476563 7.85992187 -24.421875 8.296875 C-16.37547447 11.46622733 -8.99637498 14.6988069 -1.85546875 19.62890625 C0.28861069 21.16883323 0.28861069 21.16883323 3.24609375 22.01171875 C4.62092082 23.64432589 5.95257042 25.31396937 7.24609375 27.01171875 C7.82359375 27.54796875 8.40109375 28.08421875 8.99609375 28.63671875 C10.24609375 30.01171875 10.24609375 30.01171875 10.24609375 33.01171875 C1.72240095 38.96589917 -5.46591185 40.16406916 -15.75390625 39.01171875 C-24.12772311 37.4472156 -30.78729598 29.67952794 -35.44140625 23.01171875 C-36.55156014 21.34903413 -37.65602086 19.68252977 -38.75390625 18.01171875 C-42.3937346 12.69565367 -46.18311007 8.50880181 -51.21484375 4.45703125 C-51.72273438 3.98007813 -52.230625 3.503125 -52.75390625 3.01171875 C-52.75390625 2.35171875 -52.75390625 1.69171875 -52.75390625 1.01171875 C-36.56028837 -6.18950636 -15.54553325 -11.2236545 0 0 Z " fill="#86BA4C" transform="translate(63.75390625,82.98828125)"/>
<path d="M0 0 C7.48948149 -0.81407408 13.28796422 2.06585407 19.125 6.6796875 C23.71041356 10.97851271 25.64903988 14.7474975 26.3359375 21.11328125 C26.43348915 29.10276142 25.88951971 35.61947656 20.421875 41.77734375 C13.69506252 47.97388948 7.35498412 49.33675419 -1.62109375 49.10546875 C-2.40613281 49.07066406 -3.19117188 49.03585937 -4 49 C-4 48.34 -4 47.68 -4 47 C-4.86625 46.938125 -5.7325 46.87625 -6.625 46.8125 C-11.74418156 45.58010444 -14.57503847 43.0645112 -17.48828125 38.84375 C-21.73890147 31.65960315 -21.73890147 31.65960315 -21 27 C-19.3125 25.3671875 -19.3125 25.3671875 -17 23.875 C-8.73986089 17.89127718 -3.54964811 9.45794397 0 0 Z " fill="#85BA4A" transform="translate(261,256)"/>
<path d="M0 0 C1.79824219 0.00966797 1.79824219 0.00966797 3.6328125 0.01953125 C5.4890625 0.04466797 5.4890625 0.04466797 7.3828125 0.0703125 C8.64351562 0.07933594 9.90421875 0.08835938 11.203125 0.09765625 C14.3048829 0.12115442 17.40624902 0.15400916 20.5078125 0.1953125 C20.54856832 1.78233645 20.57752235 3.3696661 20.6015625 4.95703125 C20.62766602 6.28287231 20.62766602 6.28287231 20.65429688 7.63549805 C20.42800051 11.59002705 19.17251645 14.29440211 16.5078125 17.1953125 C10.55523092 21.80646725 5.68831511 23.3562496 -1.8671875 23.4453125 C-3.17429687 23.47109375 -4.48140625 23.496875 -5.828125 23.5234375 C-10.47506676 23.10729346 -12.9477072 21.63327692 -16.3046875 18.5078125 C-18.06643868 15.07703388 -18.24944832 11.91017691 -17.4921875 8.1953125 C-13.07554101 1.18063867 -7.96456984 -0.07585305 0 0 Z " fill="#F9F9F9" transform="translate(995.4921875,243.8046875)"/>
<path d="M0 0 C-0.45662151 2.13090039 -0.95794252 3.9200908 -1.9765625 5.85546875 C-3.29309786 8.61416307 -3.77672448 11.31760312 -4.375 14.3125 C-6.11556846 22.07543534 -8.19567809 27.34441132 -15 32 C-17.64458379 33.32229189 -19.67761301 33.09677194 -22.625 33.0625 C-23.62789062 33.05347656 -24.63078125 33.04445312 -25.6640625 33.03515625 C-26.43492188 33.02355469 -27.20578125 33.01195312 -28 33 C-29 30 -29 30 -28.13671875 27.87109375 C-23.98830009 20.90488128 -18.92692688 15.50524828 -13 10 C-20.58279925 13.48808766 -25.55327416 19.21623247 -29.7734375 26.27734375 C-30.17820312 26.84582031 -30.58296875 27.41429688 -31 28 C-31.66 28 -32.32 28 -33 28 C-33.60854093 14.07117438 -33.60854093 14.07117438 -28.62890625 8.453125 C-20.58123998 0.65634521 -10.78413901 -0.67753753 0 0 Z " fill="#8CBE53" transform="translate(114,74)"/>
<path d="M0 0 C10.22991015 0.97427716 18.16541124 2.52798521 27 8 C26.67 9.65 26.34 11.3 26 13 C25.46109131 12.74307373 24.92218262 12.48614746 24.36694336 12.22143555 C21.89112603 11.04205778 19.41432205 9.86476619 16.9375 8.6875 C16.08994141 8.28337891 15.24238281 7.87925781 14.36914062 7.46289062 C9.61780361 5.20646417 4.85091435 3.03382976 0 1 C0 0.67 0 0.34 0 0 Z " fill="#F1F6E5" transform="translate(35,89)"/>
<path d="M0 0 C0.33 0 0.66 0 1 0 C1 26.73 1 53.46 1 81 C0.67 81 0.34 81 0 81 C0 55.59 0 30.18 0 4 C-0.66 4 -1.32 4 -2 4 C-1.34 2.68 -0.68 1.36 0 0 Z " fill="#99A2A8" transform="translate(889,208)"/>
<path d="M0 0 C0 10.89 0 21.78 0 33 C-9.405 33.495 -9.405 33.495 -19 34 C-16 32 -16 32 -1 32 C-1 21.77 -1 11.54 -1 1 C-11.77214149 2.46413539 -11.77214149 2.46413539 -22 6 C-22.66 5.34 -23.32 4.68 -24 4 C-22.06975832 3.31260074 -20.13020668 2.65133821 -18.1875 2 C-17.10855469 1.62875 -16.02960938 1.2575 -14.91796875 0.875 C-11 0 -11 0 0 0 Z " fill="#80858A" transform="translate(1153,177)"/>
<path d="M0 0 C0.99 0.33 1.98 0.66 3 1 C2.34773438 1.60585937 1.69546875 2.21171875 1.0234375 2.8359375 C-4.80073578 8.41958445 -9.25624492 13.8472972 -13 21 C-14.65 20.67 -16.3 20.34 -18 20 C-17.34 19.67 -16.68 19.34 -16 19 C-15.71769531 18.25878906 -15.43539062 17.51757812 -15.14453125 16.75390625 C-13.79801609 13.51399777 -12.05786305 11.51502083 -9.6875 8.9375 C-8.92824219 8.10089844 -8.16898438 7.26429687 -7.38671875 6.40234375 C-5.02585494 4.02602421 -2.77201566 1.88569418 0 0 Z " fill="#F3F6E4" transform="translate(99,83)"/>
<path d="M0 0 C12.77945619 1.21709107 12.77945619 1.21709107 18 3 C18.33 3.66 18.66 4.32 19 5 C17.68 4.67 16.36 4.34 15 4 C15.33 4.99 15.66 5.98 16 7 C10.53262809 5.25192871 5.24175152 3.34205919 0 1 C0 0.67 0 0.34 0 0 Z " fill="#D3E5B7" transform="translate(35,89)"/>
<path d="M0 0 C1.32 0.33 2.64 0.66 4 1 C3.67 1.33 3.34 1.66 3 2 C1.55221596 4.62410857 0.62766481 7.07089756 0 10 C-1.98 9.34 -3.96 8.68 -6 8 C-4.02 5.36 -2.04 2.72 0 0 Z " fill="#A3D373" transform="translate(83,113)"/>
<path d="M0 0 C0.99 0.33 1.98 0.66 3 1 C1.59921602 2.53547475 0.17879097 4.05305148 -1.25 5.5625 C-2.43335937 6.83287109 -2.43335937 6.83287109 -3.640625 8.12890625 C-4.41921875 8.74636719 -5.1978125 9.36382812 -6 10 C-7.32 9.67 -8.64 9.34 -10 9 C-6.7 6.03 -3.4 3.06 0 0 Z " fill="#E0ECCB" transform="translate(99,83)"/>
<path d="M0 0 C0.33 0 0.66 0 1 0 C1.42340597 2.93737892 1.61939756 5.10800299 -0.125 7.62011719 C-1.69140867 9.281367 -3.31313594 10.83630643 -5 12.375 C-5.57234375 12.92027344 -6.1446875 13.46554688 -6.734375 14.02734375 C-8.14305539 15.36559012 -9.56982497 16.68474975 -11 18 C-11 13.84470658 -8.77292304 11.84055531 -6 9 C-5.0925 8.319375 -4.185 7.63875 -3.25 6.9375 C-0.61919453 4.67208418 -0.28299091 3.39589098 0 0 Z " fill="#DBECD0" transform="translate(135,238)"/>
<path d="M0 0 C0.33 0 0.66 0 1 0 C1 6.93 1 13.86 1 21 C0.67 21 0.34 21 0 21 C0 15.39 0 9.78 0 4 C-0.66 4 -1.32 4 -2 4 C-1.34 2.68 -0.68 1.36 0 0 Z " fill="#AAADB2" transform="translate(889,208)"/>
<path d="M0 0 C0.66 0.33 1.32 0.66 2 1 C0.625 2.5 0.625 2.5 -1 4 C-1.66 4 -2.32 4 -3 4 C-3 4.66 -3 5.32 -3 6 C-3.99 6.33 -4.98 6.66 -6 7 C-6.99 6.34 -7.98 5.68 -9 5 C-7.54735962 4.1361871 -6.0876837 3.28419546 -4.625 2.4375 C-3.40683594 1.72400391 -3.40683594 1.72400391 -2.1640625 0.99609375 C-1.44992188 0.66738281 -0.73578125 0.33867187 0 0 Z " fill="#DAE5C6" transform="translate(231,192)"/>
<path d="M0 0 C-1.55603771 3.81936528 -3.95604931 6.26044438 -7 9 C-7.66 9 -8.32 9 -9 9 C-7.45665977 5.21180126 -4.44676575 0 0 0 Z " fill="#86C04A" transform="translate(101,86)"/>
<path d="M0 0 C0.33 0 0.66 0 1 0 C1.125 5.75 1.125 5.75 0 8 C0.99 7.67 1.98 7.34 3 7 C2.34 8.98 1.68 10.96 1 13 C0.67 12.01 0.34 11.02 0 10 C-0.99 9.67 -1.98 9.34 -3 9 C-2.01 6.03 -1.02 3.06 0 0 Z " fill="#A6D179" transform="translate(151,272)"/>
<path d="M0 0 C0.33 0.99 0.66 1.98 1 3 C1.99 2.67 2.98 2.34 4 2 C4.33 2.99 4.66 3.98 5 5 C1.33333333 5 -2.33333333 5 -6 5 C-4.6875 3.5 -4.6875 3.5 -3 2 C-2.01 2 -1.02 2 0 2 C0 1.34 0 0.68 0 0 Z " fill="#E3EBCE" transform="translate(74,114)"/>
<path d="M0 0 C1.4540625 0.0309375 1.4540625 0.0309375 2.9375 0.0625 C1.98328192 1.21176266 1.02397955 2.35680541 0.0625 3.5 C-0.47117187 4.13808594 -1.00484375 4.77617188 -1.5546875 5.43359375 C-3.0625 7.0625 -3.0625 7.0625 -5.0625 8.0625 C-4.0625 6.0625 -3.0625 4.0625 -2.0625 2.0625 C-2.7225 1.7325 -3.3825 1.4025 -4.0625 1.0625 C-3.0625 0.0625 -3.0625 0.0625 0 0 Z " fill="#8EC855" transform="translate(87.0625,113.9375)"/>
<path d="M0 0 C0.33 0.66 0.66 1.32 1 2 C1.66 2 2.32 2 3 2 C3 1.34 3 0.68 3 0 C3.66 0.33 4.32 0.66 5 1 C4.25 3.4375 4.25 3.4375 3 6 C0.875 6.8125 0.875 6.8125 -1 7 C-0.67 4.69 -0.34 2.38 0 0 Z " fill="#91C460" transform="translate(152,273)"/>
<path d="M0 0 C-4.625 4.875 -4.625 4.875 -8 6 C-8.33 5.01 -8.66 4.02 -9 3 C-6.38997624 -0.48003168 -4.1689578 -0.27793052 0 0 Z " fill="#F4FAE1" transform="translate(86,112)"/>
<path d="M0 0 C0.66 0 1.32 0 2 0 C2.33 1.65 2.66 3.3 3 5 C1.35 5.66 -0.3 6.32 -2 7 C-1.125 2.25 -1.125 2.25 0 0 Z " fill="#93BD63" transform="translate(71,111)"/>
<path d="M0 0 C-1.28519565 2.86697492 -2.57129254 4.97607712 -5 7 C-5.66 7 -6.32 7 -7 7 C-3.86206897 0 -3.86206897 0 0 0 Z " fill="#CFD0D2" transform="translate(1126,215)"/>
<path d="M0 0 C-1.04800781 0.30744141 -1.04800781 0.30744141 -2.1171875 0.62109375 C-3.02726562 0.89050781 -3.93734375 1.15992188 -4.875 1.4375 C-5.77992187 1.70433594 -6.68484375 1.97117188 -7.6171875 2.24609375 C-9.98275381 2.92613826 -9.98275381 2.92613826 -12 4 C-12.66 3.34 -13.32 2.68 -14 2 C-12.42085985 1.46658816 -10.83645613 0.94874237 -9.25 0.4375 C-8.36828125 0.14746094 -7.4865625 -0.14257812 -6.578125 -0.44140625 C-3.92165684 -1.01697435 -2.52968894 -0.89248371 0 0 Z " fill="#646B75" transform="translate(1143,179)"/>
<path d="M0 0 C0.6875 1.6875 0.6875 1.6875 1 4 C-0.3125 6.75 -0.3125 6.75 -2 9 C-2.66 9 -3.32 9 -4 9 C-2.94124926 5.59687262 -1.99097846 2.98646769 0 0 Z " fill="#656C76" transform="translate(864,193)"/>
</svg>
